<svg width="22" height="22" viewBox="0 0 22 22" fill="none" xmlns="http://www.w3.org/2000/svg">
<g clip-path="url(#clip0)">
<path d="M14.3478 12.24C15.3811 14.8542 16.1484 17.5456 16.647 20.2951C17.3583 19.8614 18.0231 19.3403 18.6274 18.7362C20.1969 17.1665 21.2098 15.1887 21.5676 13.0421C20.0257 12.4043 18.3371 12.0513 16.5674 12.0513C15.8109 12.0513 15.0696 12.1165 14.3478 12.24Z" fill="black"/>
<path d="M18.6362 3.84696C18.6331 3.84407 18.6302 3.84086 18.6273 3.83796C16.6375 1.84825 13.9921 0.752441 11.1782 0.752441C10.0779 0.752441 9.00332 0.920743 7.9837 1.24384C9.61801 3.29143 11.0557 5.47661 12.2878 7.78605C14.609 6.80051 16.7471 5.46519 18.6362 3.84696Z" fill="black"/>
<path d="M19.4638 4.77954C17.4822 6.48168 15.2677 7.86104 12.858 8.89191C13.2132 9.60707 13.5487 10.3336 13.8654 11.071C14.7496 10.9027 15.6519 10.8168 16.5673 10.8168C18.3405 10.8168 20.0652 11.1358 21.7017 11.7635C21.7088 11.6053 21.7128 11.4466 21.7128 11.2873C21.7128 8.89673 20.9216 6.62812 19.4638 4.77954Z" fill="black"/>
<path d="M4.69391 19.5913C6.53815 21.0374 8.79792 21.8217 11.1782 21.8217C12.6912 21.8217 14.1553 21.5043 15.4951 20.9022C14.9929 17.9924 14.1889 15.1848 13.116 12.5127C9.38785 13.5302 6.31632 16.1539 4.69391 19.5913Z" fill="black"/>
<path d="M10.979 11.9452C11.5209 11.716 12.0732 11.5218 12.6342 11.362C12.3382 10.684 12.0241 10.0156 11.6936 9.35669C8.84755 10.4134 5.85494 10.9489 2.78083 10.9489C2.06664 10.9489 1.35711 10.9195 0.652717 10.8619C0.647091 11.0032 0.643555 11.145 0.643555 11.2872C0.643555 14.1011 1.73936 16.7465 3.72908 18.7362C3.72972 18.7369 3.73052 18.7375 3.73116 18.7382C4.41932 17.3657 5.31934 16.1183 6.41595 15.0215C7.73422 13.7034 9.26935 12.6684 10.979 11.9452Z" fill="black"/>
<path d="M11.1161 8.24796C9.86601 5.93273 8.40338 3.74835 6.75493 1.7207C5.64401 2.23525 4.62054 2.94655 3.72905 3.83805C2.13509 5.43201 1.11548 7.44696 0.772766 9.63214C1.43504 9.68631 2.10471 9.71444 2.78081 9.71444C5.70671 9.71444 8.51414 9.19652 11.1161 8.24796Z" fill="black"/>
</g>
<defs>
<clipPath id="clip0">
<rect x="0.643555" y="0.752441" width="21.0693" height="21.0693" fill="white"/>
</clipPath>
</defs>
</svg>
