<svg width="22" height="22" viewBox="0 0 22 22" fill="none" xmlns="http://www.w3.org/2000/svg">
<g clip-path="url(#clip0)">
<path d="M21.0486 6.19443C20.9993 5.07494 20.8183 4.3053 20.5589 3.63839C20.2914 2.93049 19.8798 2.29671 19.3405 1.76984C18.8137 1.23477 18.1757 0.819 17.476 0.555647C16.8053 0.296313 16.0396 0.115277 14.9201 0.0659187C13.7923 0.0123799 13.4342 0 10.5737 0C7.71314 0 7.35509 0.0123799 6.23141 0.0617385C5.11192 0.111097 4.34228 0.292293 3.67554 0.551467C2.96747 0.819 2.33369 1.23059 1.80682 1.76984C1.27176 2.29671 0.856147 2.93467 0.592633 3.63437C0.3333 4.3053 0.152265 5.07076 0.102906 6.19025C0.0493671 7.31811 0.0369873 7.67616 0.0369873 10.5367C0.0369873 13.3973 0.0493671 13.7553 0.0987258 14.879C0.148084 15.9985 0.32928 16.7681 0.588614 17.435C0.856147 18.1429 1.27176 18.7767 1.80682 19.3036C2.33369 19.8387 2.97165 20.2544 3.67136 20.5178C4.34228 20.7771 5.10774 20.9581 6.22739 21.0075C7.35091 21.057 7.70912 21.0692 10.5697 21.0692C13.4302 21.0692 13.7883 21.057 14.9119 21.0075C16.0314 20.9581 16.8011 20.7771 17.4678 20.5178C18.8838 19.9703 20.0033 18.8508 20.5507 17.435C20.8099 16.7641 20.9911 15.9985 21.0404 14.879C21.0898 13.7553 21.1022 13.3973 21.1022 10.5367C21.1022 7.67616 21.098 7.31811 21.0486 6.19443ZM19.1513 14.7967C19.106 15.8256 18.9331 16.3813 18.7891 16.7517C18.4351 17.6696 17.7066 18.3981 16.7887 18.7521C16.4183 18.8962 15.8586 19.069 14.8336 19.1142C13.7223 19.1637 13.3891 19.1759 10.5779 19.1759C7.76668 19.1759 7.4292 19.1637 6.32193 19.1142C5.29296 19.069 4.73731 18.8962 4.36688 18.7521C3.91011 18.5833 3.49434 18.3158 3.15687 17.9659C2.80702 17.6243 2.53949 17.2127 2.37067 16.7559C2.22661 16.3855 2.05378 15.8256 2.0086 14.8009C1.95908 13.6896 1.94686 13.3561 1.94686 10.5449C1.94686 7.73372 1.95908 7.39625 2.0086 6.28913C2.05378 5.26016 2.22661 4.70451 2.37067 4.33408C2.53949 3.87715 2.80702 3.46154 3.16105 3.12391C3.50254 2.77405 3.91413 2.50652 4.37106 2.33787C4.74149 2.19381 5.30132 2.02097 6.32611 1.97563C7.4374 1.92627 7.77086 1.91389 10.5819 1.91389C13.3973 1.91389 13.7305 1.92627 14.8378 1.97563C15.8668 2.02097 16.4224 2.19381 16.7929 2.33787C17.2496 2.50652 17.6654 2.77405 18.0029 3.12391C18.3527 3.46556 18.6203 3.87715 18.7891 4.33408C18.9331 4.70451 19.106 5.26418 19.1513 6.28913C19.2007 7.40043 19.2131 7.73372 19.2131 10.5449C19.2131 13.3561 19.2007 13.6854 19.1513 14.7967Z" fill="black"/>
<path d="M10.5738 5.12427C7.58574 5.12427 5.16138 7.54847 5.16138 10.5367C5.16138 13.5249 7.58574 15.9491 10.5738 15.9491C13.562 15.9491 15.9862 13.5249 15.9862 10.5367C15.9862 7.54847 13.562 5.12427 10.5738 5.12427ZM10.5738 14.0476C8.6353 14.0476 7.06289 12.4753 7.06289 10.5367C7.06289 8.59803 8.6353 7.02578 10.5738 7.02578C12.5124 7.02578 14.0847 8.59803 14.0847 10.5367C14.0847 12.4753 12.5124 14.0476 10.5738 14.0476Z" fill="black"/>
<path d="M17.4639 4.91028C17.4639 5.60805 16.8981 6.17383 16.2001 6.17383C15.5024 6.17383 14.9366 5.60805 14.9366 4.91028C14.9366 4.21234 15.5024 3.64673 16.2001 3.64673C16.8981 3.64673 17.4639 4.21234 17.4639 4.91028Z" fill="black"/>
</g>
<defs>
<clipPath id="clip0">
<rect width="21.0693" height="21.0693" fill="white"/>
</clipPath>
</defs>
</svg>
