<svg width="22" height="22" viewBox="0 0 22 22" fill="none" xmlns="http://www.w3.org/2000/svg">
<g clip-path="url(#clip0)">
<path d="M-0.134356 3.91565C2.75732 6.36458 7.83132 10.673 9.32264 12.0164C9.52283 12.1977 9.73756 12.2899 9.96048 12.2899C10.1829 12.2899 10.3973 12.1986 10.597 12.0181C12.0896 10.6734 17.1636 6.36458 20.0553 3.91565C20.2354 3.76347 20.2628 3.49599 20.1171 3.30994C19.7801 2.88004 19.2778 2.63354 18.7393 2.63354H1.18161C0.643233 2.63354 0.140821 2.88004 -0.196082 3.30999C-0.341839 3.49599 -0.314391 3.76347 -0.134356 3.91565Z" fill="black"/>
<path d="M20.2404 5.24283C20.0848 5.1704 19.9018 5.19567 19.7723 5.30628C16.5655 8.0248 12.4727 11.5094 11.185 12.6697C10.4623 13.3221 9.45924 13.3221 8.73482 12.6689C7.36227 11.4322 2.76619 7.52498 0.148414 5.30624C0.0180888 5.19563 -0.165362 5.17122 -0.319679 5.24279C-0.474818 5.31484 -0.57428 5.47002 -0.57428 5.64104V16.6798C-0.57428 17.6482 0.213144 18.4356 1.18151 18.4356H18.7393C19.7076 18.4356 20.495 17.6482 20.495 16.6798V5.64104C20.495 5.47002 20.3956 5.31443 20.2404 5.24283Z" fill="black"/>
</g>
<defs>
<clipPath id="clip0">
<rect x="0.930664" width="21.0693" height="21.0693" fill="white"/>
</clipPath>
</defs>
</svg>
