<svg width="22" height="22" viewBox="0 0 22 22" fill="none" xmlns="http://www.w3.org/2000/svg">
<g clip-path="url(#clip0)">
<path d="M8.1474 19.9308C7.2363 19.9308 6.29851 19.857 5.35509 19.7091C3.69347 19.4484 2.01143 18.5792 1.53546 18.319L0.287109 17.6364L1.63866 17.192C3.11607 16.7062 4.0148 16.4048 5.12732 15.9329C4.01335 15.3934 3.15481 14.423 2.74153 13.1685L2.42711 12.214L2.68495 12.2534C2.44046 12.007 2.2474 11.7568 2.09775 11.5294C1.56552 10.721 1.28373 9.73321 1.34369 8.88672L1.40284 8.05357L1.90164 8.24679C1.69122 7.84942 1.53916 7.42506 1.44978 6.98027C1.23197 5.89556 1.41426 4.74317 1.9632 3.73545L2.3977 2.93783L2.97879 3.63579C4.81659 5.84347 7.14435 7.15307 9.90708 7.53645C9.79424 6.7586 9.87879 6.00792 10.1586 5.33504C10.4845 4.55156 11.0641 3.8872 11.8344 3.41364C12.6899 2.88784 13.7274 2.63305 14.7556 2.69623C15.8466 2.76326 16.8371 3.17204 17.6238 3.87916C18.008 3.77933 18.2911 3.67276 18.6737 3.52873C18.9038 3.44209 19.1649 3.34371 19.4915 3.23119L20.6952 2.81647L19.9103 5.05823C19.962 5.05389 20.0154 5.05019 20.0712 5.04778L21.3565 4.98959L20.5968 6.02785C20.5533 6.08733 20.5422 6.1042 20.5267 6.12751C20.4655 6.21978 20.3893 6.33455 19.3465 7.72694C19.0855 8.07559 18.9551 8.5297 18.9794 9.00583C19.0718 10.8152 18.8498 12.4522 18.3192 13.8713C17.8174 15.2138 17.0397 16.3658 16.008 17.295C14.7314 18.4447 13.1035 19.2319 11.1694 19.6344C10.2207 19.8318 9.20189 19.9308 8.1474 19.9308Z" fill="black"/>
</g>
<defs>
<clipPath id="clip0">
<rect x="0.287109" y="0.752441" width="21.0693" height="21.0693" fill="white"/>
</clipPath>
</defs>
</svg>
